<svg  fill="#7990AF" viewBox="0 0 32 32" xmlns="http://www.w3.org/2000/svg">
    <path d="M14.1034 7.20294C14.013 7.08739 13.9167 7.02368 13.8011 7.02368C13.7182 7.02961 13.6411 7.05627 13.57 7.10072C12.7152 7.76887 11.5523 10.6029 10.5952 14.3422L11.4441 14.3481C13.1152 14.3674 14.8426 14.3866 16.5463 14.4118C16.096 12.7022 15.6723 11.237 15.2811 10.0489C14.7078 8.32146 14.3226 7.54368 14.1034 7.20294Z"/>
    <path d="M16 0C7.16444 0 0 7.16444 0 16C0 24.8356 7.16444 32 16 32C24.8356 32 32 24.8356 32 16C32 7.16444 24.8356 0 16 0ZM27.8104 15.8074C27.7659 15.9867 27.6563 16.1615 27.5022 16.2889C27.483 16.3022 27.4637 16.3141 27.4444 16.3274L27.4252 16.3407L27.3867 16.3659L27.3541 16.3852C27.2326 16.4489 27.0963 16.4815 26.9555 16.4815H19.3733C19.4311 16.7319 19.5022 17.0207 19.5718 17.3304C19.9896 19.123 21.0889 23.8904 22.2637 23.8904H22.2889H22.3022H22.3274C23.24 23.8904 23.7096 22.5674 24.7378 19.6681L24.7511 19.6356C24.9185 19.1733 25.1052 18.6459 25.3037 18.0874L25.3555 17.9467C25.4326 17.76 25.6444 17.6637 25.8311 17.7407C25.9659 17.7926 26.0622 17.9274 26.0622 18.0756C26.0622 18.1141 26.0563 18.1467 26.0489 18.1778L26.0044 18.3185C25.8948 18.6652 25.7867 19.1348 25.6504 19.6815C25.04 22.2133 24.1141 26.037 21.7496 26.037H21.7304C20.2015 26.0237 19.2889 23.5822 18.8963 22.5348C18.1644 20.5807 17.6118 18.5052 17.0785 16.4889H10.1141L8.66815 21.1215L8.64889 21.1022C8.43111 21.443 7.97481 21.5452 7.63407 21.3274C7.42222 21.1926 7.29333 20.9615 7.29333 20.7111V20.6859L7.3837 20.1585C7.58222 18.9704 7.82666 17.7289 8.09629 16.483H5.14074L5.12741 16.4696C4.52296 16.3793 4.10518 15.8148 4.19555 15.2104C4.26667 14.7407 4.62667 14.3689 5.08889 14.2844C5.20444 14.2711 5.32 14.2652 5.43555 14.2711H5.57629C6.50815 14.2844 7.49778 14.3037 8.58963 14.3156C10.1259 8.06963 11.9052 4.89481 13.8844 4.88889C16.0044 4.88889 17.5793 9.71407 18.8385 14.437L18.8444 14.4563C21.4281 14.5081 24.1911 14.5852 26.8696 14.7778L26.9852 14.7911C27.0296 14.7911 27.0681 14.797 27.1141 14.8044H27.1274L27.1407 14.8104H27.1467C27.6044 14.9007 27.9067 15.3511 27.8104 15.8074Z" />
</svg>